<?xml version="1.0" encoding="utf-8"?>
<!-- Generator: Adobe Illustrator 16.0.0, SVG Export Plug-In . SVG Version: 6.00 Build 0)  -->
<!DOCTYPE svg PUBLIC "-//W3C//DTD SVG 1.1//EN" "http://www.w3.org/Graphics/SVG/1.1/DTD/svg11.dtd">
<svg version="1.1" id="Layer_1" xmlns="http://www.w3.org/2000/svg" xmlns:xlink="http://www.w3.org/1999/xlink" x="0px" y="0px"
	 width="1086px" height="921px" viewBox="0 0 1086 921" enable-background="new 0 0 1086 921" xml:space="preserve">

<path fill="#000000" d="M476.46,111.62c3.65-1.6,7.69-1.41,11.59-1.39c12.311,0.13,24.62-0.11,36.931,0.1
	c8.02,0.98,16.119,1.22,24.06,2.77c4.12,0.79,8.49,0.61,12.38,2.36c-5.25,1.77-10.76,2.48-16.1,3.89
	c-18.931,4.81-37.4,11.4-55.061,19.74c-9.63,3.8-20.2,2.08-30.26,3.19c-14.56,1.62-29.11,3.71-43.36,7.14
	c-3.63,0.94-7.239,1.9-10.92,2.59c3.931-3.58,8.45-6.41,12.79-9.44C436.71,130.33,456.13,119.86,476.46,111.62z"/>
<path fill="#000000" d="M585.01,116.5c9.721-2.93,19.94-1.85,29.91-2.85c8.36-0.75,16.73-0.05,25.07,0.55
	c8.41-0.23,16.729,1.11,25.06,2.03c3.12,0.33,6.03,1.59,8.83,2.94c15.29,7.46,29.82,16.39,43.64,26.28
	c7.74,5.71,15.721,11.19,22.811,17.7c-22.5-7.45-45.69-13.17-69.33-15.36c-3.55-0.34-7.17-0.35-10.61-1.34
	c-3.52-1.23-6.63-3.36-9.939-5.02C629.66,130.73,607.87,121.64,585.01,116.5z"/>
<path fill="#000000" d="M563.92,119.22c4.311-0.74,8.75-2.35,13.12-1.01c26.11,6.34,51.64,15.62,75.15,28.69
	c-10.341-1.41-20.811-0.85-31.181-0.17c-15.09,0.99-30.09,3.26-44.81,6.69c-2.41,0.58-4.94,0.51-7.29-0.27
	c-23.65-7.3-48.34-11.08-73.061-11.66c9.551-5.75,20.311-9.14,30.79-12.79C538.84,124.71,551.32,121.62,563.92,119.22z"/>
<path fill="#000000" d="M456.17,146.58c7.04-0.23,14-1.81,21.07-1.46c-4.04,2.77-8.42,4.98-12.59,7.53
	c-17.131,10.4-33.41,22.28-48.051,35.99c-3.279,3.5-8.229,4-12.619,5.16c-17.2,4.41-33.94,10.59-49.99,18.18
	c-4.5,2.03-8.72,4.65-13.37,6.34c1.63-2.88,3.57-5.57,5.67-8.13c12.38-15.77,25.93-30.68,41.19-43.71c3.67-2.98,7-6.69,11.64-8.17
	C417.58,152.14,436.87,148.8,456.17,146.58z"/>
<path fill="#000000" d="M668.04,151.24c23.11,2.37,46.03,7.1,68.02,14.64c4.71,1.89,10.11,2.62,14.061,6.02
	c19.25,18.64,36.91,39.18,50.75,62.19c-21.32-13.48-44.37-24.25-68.54-31.49c-2.13-0.57-4.14-1.59-5.54-3.32
	C709.63,180.55,689.44,164.83,668.04,151.24z"/>
<path fill="#000000" d="M370.34,168.36c4.92-1.93,9.72-4.2,14.87-5.48c-4.73,5.05-10.08,9.48-14.98,14.35
	c-12.94,13.21-25.19,27.16-35.53,42.52c-3.13,5.01-8.79,7.28-13.52,10.42c-14.56,9.48-28.49,19.98-41.31,31.73
	c-3.78,3.36-7.25,7.06-11.16,10.28c1.54-5.01,3.93-9.68,6.16-14.41c8.82-18.38,19.78-35.67,31.92-52.03
	c2.38-3.25,5.27-6.11,8.66-8.29C332.78,186.07,351.15,176.23,370.34,168.36z"/>
<path fill="#000000" d="M758.94,174.87c20.369,8.13,39.5,19.26,57.56,31.68c6.41,4.77,13.72,8.91,18.03,15.9
	c14.06,21.81,26.18,45.05,34.47,69.68c-8.18-8.19-15.83-16.92-24.46-24.66c-9.39-8.72-19.351-16.84-29.87-24.16
	c-3.36-2.2-6.66-4.71-8.6-8.32C793.03,213.02,776.87,193.01,758.94,174.87z"/>
<path fill="#000000" d="M495.03,191.12c2.29-1.82,5.27-1.02,7.91-0.69c11.39,1.84,22.829,3.65,33.96,6.75
	c9.68,2.59,19.04,6.19,28.39,9.75c-18.8,8.9-37.66,18.32-53.73,31.71c-1.21,0.82-2.479,2.21-4.09,1.71
	c-12.93-3-26.18-4.9-39.489-4.85c-8.04,0.04-16.08-0.11-24.11,0.21C458.35,218.21,476.15,203.65,495.03,191.12z"/>
<path fill="#000000" d="M621.04,196.81c8.62-0.95,17.59-2.96,26.14-0.88c10.32,7.14,19.7,15.59,28.66,24.35
	c7.18,7.44,14.34,15,20.19,23.56c-6.061-0.28-12.011-1.73-18.08-1.69c-12.62-0.21-25.34-0.65-37.88,1.03
	c-4,0.42-8.851,2.05-12.13-1.14c-14.15-12.66-29.96-23.56-47-31.96c-1.21-0.86-3.54-0.96-3.73-2.7
	C591.27,202.02,606.18,199.01,621.04,196.81z"/>
<path fill="#000000" d="M564.09,212.17c2.93-1.01,6.17-3.32,9.26-1.54c18.801,8.84,36.66,20.09,51.811,34.38
	c-18.4,4.4-36.63,10-53.57,18.53c-2.31,1.73-4.72-0.25-6.85-1.23c-16.13-8.6-32.891-16.42-50.82-20.4
	C528.81,229.26,546.14,219.75,564.09,212.17z"/>
<path fill="#000000" d="M863.16,214.5c1.51-0.75,3.24,1.72,2.479,3.05C864.08,218.38,862.17,215.86,863.16,214.5z"/>
<path fill="#000000" d="M267.35,279.39c17.96-18.29,37.69-35.09,59.74-48.25c-2.51,4.74-5.54,9.17-8.13,13.86
	c-9.8,17.62-17.81,36.26-23.44,55.63c-0.45,1.33-0.96,2.7-2.03,3.67c-13.16,11.97-24.91,25.44-35.44,39.771
	c-4.84,6.41-8.93,13.35-13.64,19.859c2.89-26.68,8.76-53.1,18.29-78.22C263.62,283.2,265.49,281.24,267.35,279.39z"/>
<path fill="#000000" d="M440.92,240.12c16.11-1.43,32.36-1.21,48.43,0.71c5.04,0.77,10.28,1.03,15,3.15
	c-7.279,7.51-15.149,14.47-21.779,22.59c-6.2,6.92-11.181,14.77-16.721,22.19c-6.96,0.38-13.899,1.02-20.869,1.03
	c-12.931,0.75-25.601,3.64-38.19,6.52c7.15-19.21,17.9-36.96,30.49-53.08C438.36,242.11,439.21,240.32,440.92,240.12z"/>
<path fill="#000000" d="M374.39,256.54c19.07-7.51,38.94-13.52,59.43-15.43c-12.33,16.71-23.61,34.47-30.84,54.03
	c-0.511,1.67-1.521,3.13-3.341,3.46c-14.84,4.91-29.209,11.27-42.709,19.15c-4.72,2.72-9.12,5.98-13.98,8.46
	c0.64-5.96,2.33-11.729,3.87-17.5c4.03-14.69,9.51-28.98,16.33-42.61c1.12-2.11,1.93-4.49,3.67-6.19
	C369.14,258.38,371.83,257.58,374.39,256.54z"/>
<path fill="#000000" d="M643.91,246.58c5.71-0.12,11.35-1.27,17.06-1.29c13.011-0.32,25.94,1.48,38.811,3.1
	c11.18,15.93,20.479,33.23,27.22,51.51c0.85,2.27,1.43,4.63,1.99,6.99c-13.26-4.64-27.01-7.83-40.92-9.72
	c-5.891-0.88-12.101-0.37-17.74-2.43c-2.58-3.22-4.23-7.06-6.57-10.44c-8.319-13.11-18.42-24.96-28.87-36.4
	C637.85,247.18,640.86,246.64,643.91,246.58z"/>
<path fill="#000000" d="M813.07,246.74c18.81,13.57,36.21,29.18,51.47,46.66c3.649,4.12,7.86,8.12,9.46,13.57
	c4.41,15.09,7.83,30.49,10.01,46.07c1.101,7.67,1.42,15.42,2.45,23.09c0.39,2.98,0.37,5.99,0.19,8.99
	c-11.471-22.42-26.32-42.99-43.28-61.561c-1.72-1.76-3.12-3.85-3.59-6.29c-4.32-18.7-10.75-36.89-18.75-54.33
	C818.55,257.45,815.48,252.26,813.07,246.74z"/>
<path fill="#000000" d="M705.65,249.94c18.08,2.72,35.56,8.81,52.199,16.31c4.631,2.36,9.58,4.2,13.881,7.14
	c1.819,2.37,2.52,5.37,3.68,8.08c7.53,19.05,13.5,38.89,15.359,59.37c-17.239-13.229-36.1-24.45-56.5-32.06
	c-6.1-17.85-13.63-35.31-23.88-51.2C708.74,255.08,707.16,252.53,705.65,249.94z"/>
<path fill="#000000" d="M211.95,358.81c11.84-24.04,26.84-46.52,44.14-66.97c-0.48,1.92-0.96,3.84-1.58,5.73
	c-6.65,18.98-10.45,38.831-13.25,58.72c-0.79,5.33,0.01,10.91-1.94,16.04c-1.61,4.189-4.11,7.95-6.03,11.99
	c-7.1,13.85-13.14,28.229-18.05,43c-2.28,7.149-4.65,14.31-5.78,21.76c-2.15-13.6-2.22-27.39-2.63-41.11
	c0.26-8.819,0.7-17.63,0.94-26.45C209.33,373.97,208.36,365.85,211.95,358.81z"/>
<path fill="#000000" d="M344.83,329.82c17.08-11.13,35.22-21.12,54.85-26.94c-4.439,15.08-8.689,30.37-9.91,46.11
	c-0.38,3.88-0.52,7.81-1.42,11.62c-0.3,1.409-1.78,2.029-2.83,2.8c-12.31,6.979-23.82,15.34-34.39,24.74
	c-3.41,2.949-6.3,6.479-10,9.1c-1.63-5.91-1.21-12.11-2.25-18.11c-1.63-15.1,0.58-30.25,2.42-45.22
	C341.29,331.82,343.38,330.88,344.83,329.82z"/>
<path fill="#000000" d="M879.34,311.26c14.391,19.49,26.93,40.37,36.771,62.521c2.59,6.17,6.159,12.33,5.729,19.26
	c-0.27,13.35,0.32,26.72-0.32,40.06c-1.3,12.021-2.459,24.11-4.93,35.95c-5.13-21.87-11.04-43.689-20.33-64.2
	c-2.09-4.47-4.58-8.88-5.22-13.84c-0.96-6.63-0.83-13.35-1.14-20.029C888.311,350.79,884.75,330.77,879.34,311.26z"/>
<path fill="#000000" d="M735.43,313.83c14.32,4.8,27.54,12.479,40.11,20.76c5.51,4.021,11.42,7.68,16.21,12.561
	c0.8,4.26,0.22,8.64,0.58,12.949c0.99,13.17-0.01,26.41-1.82,39.48c-0.62,4.15-0.91,8.47-2.819,12.29
	c-12.62-15.351-28.23-27.89-44.561-39.09C742.69,352.95,741.14,332.93,735.43,313.83z"/>
<path fill="#000000" d="M291.3,381.37c13.4-16.74,28.04-32.811,45.52-45.38c-1.71,17.95-2.7,36.069-0.76,54.04
	c0.57,5.04,2.49,11.22-1.84,15.17c-13.57,15-24.31,32.3-33.4,50.31c-2.06-4.08-3-8.569-4.26-12.93c-4.9-17.79-8.42-36.13-8.3-54.63
	C287.98,385.31,289.78,383.27,291.3,381.37z"/>
<path fill="#000000" d="M796.19,350.24c14.26,12.99,27.609,27.069,38.54,43.01c2.609,4.72,7.989,8.88,6.959,14.8
	c-2.779,21.82-8.409,43.25-16.359,63.74c-1.44-0.07-1.67-1.81-2.3-2.78c-6.12-14.5-13.641-28.43-22.721-41.29
	c-2.609-4.21-6.43-7.63-8.75-11.979c2.87-14.04,5.32-28.32,5.03-42.73C796.22,365.42,796.94,357.81,796.19,350.24z"/>
<path fill="#000000" d="M212.85,448.95c6.14-23.97,15.34-47.08,26.79-69c-1.09,23.91,0.68,48,5.88,71.38
	c0.57,2.54,1.36,5.07,1.48,7.7c-0.21,2.76-1.23,5.37-1.94,8.02c-6.24,22.51-9.75,45.76-10.55,69.101
	c-0.85-1.381-1.71-2.761-2.43-4.21c-10.13-22.62-16.53-46.71-21.18-71C210.08,456.84,211.97,452.87,212.85,448.95z"/>
<path fill="#000000" d="M890.51,401.88c2.721,4.16,4.2,8.94,6.07,13.51c7.34,18.95,13.03,38.551,16.71,58.551
	c0.479,2.97,1.47,6.04,0.58,9.05c-6.3,25.75-15.181,51.04-27.95,74.33c0.41-24.87-1.92-49.801-7.27-74.101
	c-0.48-2.13-0.561-4.37,0.09-6.47C885.88,452.45,890.08,427.23,890.51,401.88z"/>
<path fill="#000000" d="M305.31,455.4c8.83-17.49,19.25-34.521,33.07-48.53c3.95,19.43,10.66,38.26,19.36,56.07
	c-9.48,17.529-18.3,35.67-22.73,55.22c-13.63-16.16-23.64-35.07-31.52-54.601C302.14,460.71,304.21,457.94,305.31,455.4z"/>
<path fill="#000000" d="M790.21,421.05c12.37,15.03,22.21,32.09,29.5,50.13c0.94,2.87,3.12,6.051,1.46,9.07
	c-5.189,11.33-11.34,22.24-18.51,32.43c-5.01,6.75-9.87,13.74-16.03,19.5c-3.63-18.31-9.81-36.069-17.91-52.87
	c-0.5-1.329-1.6-2.819-0.68-4.21c5.15-9.989,10.45-19.939,14.61-30.409C785.84,437.04,787.98,429.02,790.21,421.05z"/>
<path fill="#000000" d="M283.17,534.08c2.59-23.021,7.72-46,17.16-67.23c8.84,20.03,19.37,39.511,33.45,56.391
	c-5.39,21.26-5.94,43.34-4.99,65.14c-14.29-12.45-27.16-26.56-38.09-42.06C288.19,542.26,284.65,538.66,283.17,534.08z"/>
<path fill="#000000" d="M203.41,508.96c0.83-13.41,2.65-26.77,4.94-40c4.52,21.08,10.38,41.96,18.84,61.82
	c2.15,5.79,5.91,11.02,6.85,17.22c1.05,7.73,0.88,15.55,1.43,23.33c1.78,19.1,5.21,38.05,10.3,56.54
	c-14.34-19.61-27.04-40.48-36.82-62.75c-2.3-5.51-5.35-10.94-5.46-17.05C203.04,535.04,203.31,521.99,203.41,508.96z"/>
<path fill="#000000" d="M819.24,493.29c1.779-3.22,3.09-6.73,5.42-9.62c6.96,21.79,12.13,44.43,12.109,67.41
	c0.19,3.89-3.35,6.39-5.369,9.29c-12.44,16.03-26.801,30.649-43.181,42.66c2.261-20.59,2.66-41.46-0.21-62.011
	c-0.89-3.38,2.021-5.75,3.86-8.14C802.51,520.82,811.56,507.41,819.24,493.29z"/>
<path fill="#000000" d="M915.53,492.84c2.76,9.83,1.729,20.12,2.64,30.18c0.74,9.681-0.59,19.351-0.55,29.03
	c0.11,6.04-1.431,11.931-1.73,17.94c-0.329,6.609-3.7,12.479-6.81,18.14c-11.03,21.11-24.66,40.83-40.01,59.021
	c7.319-23.86,13.71-48.221,15.31-73.221c0.11-3.979,1.37-7.819,3.38-11.229C899.83,540.66,909.33,517.19,915.53,492.84z"/>
<path fill="#000000" d="M337.12,527.8c5.46,5.23,10.44,10.931,16.04,16.03c8.47,7.7,17.44,14.87,27.04,21.12
	c2.37,1.06,1.98,3.83,2.06,5.99c-0.08,18.329,2.59,36.579,7.1,54.319c-18.1-6.76-34.99-16.649-50.29-28.42c-2-1.58-4.21-3-5.73-5.08
	c-1.78-16.18-1.29-32.569,0.68-48.72C334.75,537.91,334.91,532.58,337.12,527.8z"/>
<path fill="#000000" d="M783.58,541.98c2.38,3.859,1.229,8.659,2.03,12.949c2.5,16.971,0.21,34.09-2.04,50.95
	c-0.19,1.74-2.07,2.41-3.261,3.37c-17.21,11.04-35.359,21.17-55.079,26.95c6.14-17.141,9.199-35.181,10.989-53.24
	c0.44-2.44,0.07-5.77,2.86-6.86C755.32,566.75,770.4,555.32,783.58,541.98z"/>
<path fill="#000000" d="M238.29,554.85c11.87,20.73,25.06,40.881,41.33,58.471c2.45,2.62,5.18,5.31,5.84,9
	c4.51,18.939,10.97,37.42,19.26,55.04c2.21,5.05,5.05,9.79,7.24,14.859c-17.81-12.97-34.63-27.5-49.13-44.13
	c-4.59-5.1-10.11-9.95-12.05-16.78C243.3,606.51,239.37,580.68,238.29,554.85z"/>
<path fill="#000000" d="M832.75,633.83c18.79-17.061,34.5-37.26,47.89-58.771c-2.609,24.931-7.72,49.7-16.46,73.23
	c-1.21,3.21-2.21,6.65-4.58,9.24C848.61,669.25,836.78,680.2,824.04,690c-8.22,6.19-16.4,12.56-25.49,17.42
	c2.23-4.89,5.41-9.25,7.95-13.979c8.67-15.49,15.64-31.91,21.189-48.771C829.03,640.93,829.49,636.51,832.75,633.83z"/>
<path fill="#000000" d="M334.15,598.76c8.78,5.55,16.97,12.021,26.08,17.07c9.69,5.79,19.97,10.53,30.55,14.439
	c6.069,18.08,13.859,35.66,24.189,51.74c1.53,2.34,3.021,4.7,4.46,7.101c-22.29-3.48-43.67-11.681-63.71-21.891
	c-3.53-1.33-4.4-5.2-5.66-8.319C342.39,639.6,336.37,619.48,334.15,598.76z"/>
<path fill="#000000" d="M766.41,622.44c5.33-2.95,10.32-6.45,15.53-9.601c-3.53,22.18-11.591,43.44-21.73,63.391
	c-1.14,2.949-4.22,4.02-6.9,5.1c-19.88,8.03-40.649,14.56-62.079,16.52c13.289-17.189,24.5-36.069,32.02-56.51
	C738.15,636.33,752.79,630.35,766.41,622.44z"/>
<path fill="#000000" d="M395.93,632.86c6.48,1.22,12.64,3.72,19.089,5.09c12.98,3.6,26.471,4.359,39.761,6.14
	c8.68,15.15,19.09,29.3,30.939,42.13c1.59,1.67,3.04,3.48,4.4,5.351c-5.021,0.59-10.08,0.71-15.101,1.319
	c-16.579,2.49-33.279-0.409-49.77-2.199C412.86,672.92,402.58,653.51,395.93,632.86z"/>
<path fill="#000000" d="M674.95,649.52c14.67-0.14,29.06-3.279,43.27-6.64c-5.609,15.15-13.71,29.29-22.8,42.601
	c-3.43,4.52-6.439,9.43-10.45,13.46c-2.5,0.88-5.3,0.279-7.899,0.43c-18.54,0.46-37.5,0.92-55.53-4.061
	c-0.1-0.229-0.3-0.699-0.4-0.93c10.301-9.479,20.28-19.42,28.601-30.729c3.479-4.15,5.8-9.24,9.689-13.021
	C664.52,649.6,669.78,649.86,674.95,649.52z"/>
<path fill="#000000" d="M256.04,646.9c4.36,4,8,8.68,12.18,12.869c13.56,13.91,28.35,26.65,44.34,37.7
	c3.14,2.141,5.68,5.04,7.57,8.33c12.71,21.24,28.42,40.601,45.87,58.11c-24.26-9.33-46.5-23.28-67.38-38.641
	c-6.34-4.449-9.96-11.47-13.98-17.859C273.09,688.29,263.08,668.11,256.04,646.9z"/>
<path fill="#000000" d="M855.85,666.85c1.04-1.01,2.141-1.96,3.24-2.909c-5.29,9.31-9.37,19.25-14.6,28.6
	c-7.99,14.86-17.101,29.14-27.44,42.49c-3.359,4.42-8.31,7.12-12.88,10.09c-15.21,9.75-31.35,17.99-47.97,25.03
	c-5.38,2.189-10.69,4.59-16.33,6.01c8.25-8.17,17.07-15.78,24.74-24.54c8-8.74,15.55-17.89,22.439-27.53
	c2.61-3.66,4.88-7.8,8.82-10.21C817.62,700.66,838.14,685.18,855.85,666.85z"/>
<path fill="#000000" d="M555.42,674.41c6.04,2.979,11.83,6.43,17.93,9.28c11.99,5.89,24.641,10.43,37.601,13.67
	c-14.94,12.47-32.13,21.96-50,29.52c-2.92,1.04-6.16,3.311-9.24,1.54c-13.58-6.08-26.31-13.979-38.22-22.89
	c-4.71-3.62-9.57-7.11-13.76-11.351C518.89,689.52,538.04,683.97,555.42,674.41z"/>
<path fill="#000000" d="M479.08,696.77c4.66-0.13,9.17-1.939,13.87-1.489c2.49,0.27,4.39,2.069,6.22,3.609
	c14.74,13.051,31.561,23.54,49.04,32.511c-10.4,4.489-21.64,6.63-32.67,8.979c-12.04,1.95-24.21,4.37-36.47,3.32
	c-1.21-0.12-2.17-0.931-3.13-1.561c-14.53-11.33-28.271-23.77-40.11-37.92c-2.37-2.72-4.63-5.54-6.44-8.66
	c4.221,0.08,8.391,0.78,12.58,1.16C454.33,697.46,466.71,697.25,479.08,696.77z"/>
<path fill="#000000" d="M601.53,709.51c5.01-3.319,9.649-7.16,14.41-10.83c10.84,2.63,21.93,3.9,33,4.99
	c10.72,0.34,21.439,0.13,32.159,0.14c-15.01,16.86-32.09,31.98-51.21,44.021c-2.62,1.78-5.909,0.93-8.819,0.7
	c-21.101-2.851-41.891-8.37-61.58-16.431C573.94,725.46,588.46,718.69,601.53,709.51z"/>
<path fill="#000000" d="M324.75,705.72c9.24,4.91,18.01,10.721,27.55,15.09c12.97,6.301,26.47,11.54,40.3,15.631
	c1.9,0.56,3.85,1.26,5.19,2.819c17.36,18.851,37.63,34.9,59.32,48.49c-26.57-2.55-52.88-8.47-77.791-18.1
	c-4.58-1.69-7.48-5.811-10.93-9.011c-12.93-12.52-24.47-26.439-34.82-41.149C330.54,714.96,327.21,710.6,324.75,705.72z"/>
<path fill="#000000" d="M767.68,728.68c5.891-2.67,11.5-5.91,17.45-8.439c-15.16,21.41-33.32,40.64-53.41,57.49
	c-3.62,3-8.279,4.09-12.72,5.279c-16.35,4.561-33.11,7.63-49.98,9.51c-7.029,0.29-14,1.761-21.06,1.33
	c12.87-7.56,25.771-15.14,37.67-24.199c8.62-6.29,16.51-13.49,24.58-20.46c1.64-1.48,3.7-2.391,5.86-2.83
	C733.92,742.62,751.13,736.26,767.68,728.68z"/>
<path fill="#000000" d="M384.77,776.02c24.33,8.061,49.48,14.25,75.13,15.69c6.399,0.57,11.67,4.58,17.319,7.22
	c19.96,10.32,41.07,18.431,62.891,23.82c-10.511,2.51-21.391,1.79-32.08,2.62c-8.351,0.63-16.69-0.45-25.04-0.53
	c-7.021-0.12-14-0.939-20.98-1.64c-8.34-0.84-15.49-5.53-22.67-9.42C419.86,803.22,401.62,790.37,384.77,776.02z"/>
<path fill="#000000" d="M541.07,787.49c4.64-0.63,9.31-2.88,14.029-1.66c24.07,6.95,49.011,11.65,74.141,11.62
	c-2.36,2.609-5.95,3.359-9.03,4.77c-17.75,7.511-36.34,12.9-55.16,16.94c-5.41,0.76-10.79,3.229-16.3,2.14
	c-16.7-4.16-33.14-9.42-49.03-16.04c-8.439-3.729-17.08-7.16-24.979-11.97c8.109-0.6,16.229,0.14,24.34-0.34
	C513.14,791.64,527.24,790.48,541.07,787.49z"/>
<path fill="#000000" d="M700.97,791.34c6.351-1.189,12.53-3.2,18.92-4.21c-21.92,16.4-45.96,29.95-71.26,40.39
	c-5.58,2.29-11.729,0.98-17.57,1.4c-9.68,0.64-19.369-0.27-29.05-0.06c-13.13-0.54-26.1-2.811-39.109-4.511
	c5.17-2.069,10.689-2.939,16.04-4.409c17.069-4.25,33.85-9.75,49.85-17.11c3.97-1.7,7.8-4.01,12.14-4.63
	c7.67-1.26,15.471-0.59,23.17-1.33C676.46,795.57,688.82,794.01,700.97,791.34z"/>
</svg>
