<svg id="kity_svg_6" xmlns="http://www.w3.org/2000/svg" xmlns:xlink="http://www.w3.org/1999/xlink" version="1.1" width="443" height="246" style="display: inline;" viewBox="0 0 443 246"><defs id="kity_defs_7"><linearGradient id="kity_linearGradient_17" x1="0" y1="0" x2="0" y2="1"><stop id="kity_stop_18" offset="0" stop-color="rgb(255, 255, 255)"></stop><stop id="kity_stop_19" offset="1" stop-color="rgb(204, 204, 204)"></stop></linearGradient><marker id="kity_marker_4" orient="auto" refX="6" refY="0" viewBox="-7 -7 14 14" markerWidth="7" markerHeight="7" markerUnits="userSpaceOnUse"><path id="kity_path_5" fill="rgb(123, 115, 191)" stroke="none" d="M6,0A6,6,0,1,1,-6,0A6,6,0,1,1,6,0"></path></marker><marker id="kity_marker_2" orient="auto" refX="6" refY="0" viewBox="-7 -7 14 14" markerWidth="7" markerHeight="7" markerUnits="userSpaceOnUse"><path id="kity_path_3" fill="rgb(123, 115, 191)" stroke="none" d="M6,0A6,6,0,1,1,-6,0A6,6,0,1,1,6,0"></path></marker></defs><g id="kity_g_8"><g id="minder1" text-rendering="optimize-speed"><g id="minder_connect_group1"><path id="kity_path_31" fill="none" stroke="rgb(115, 191, 118)" stroke-width="1" d="M221.5,48.5v10h-125V66.5"></path><path id="kity_path_39" fill="none" stroke="rgb(115, 191, 118)" stroke-width="1" d="M221.5,48.5v10h95V66.5"></path><path id="kity_path_61" fill="none" stroke="rgb(115, 191, 118)" stroke-width="1" d="M40.5,92.5V113.5L48.5,113.5"></path><path id="kity_path_85" fill="none" stroke="rgb(115, 191, 118)" stroke-width="1" d="M68.5,122.5V139.5L76.5,139.5"></path><path id="kity_path_93" fill="none" stroke="rgb(115, 191, 118)" stroke-width="1" d="M68.5,122.5V165.5L76.5,165.5"></path><path id="kity_path_101" fill="none" stroke="rgb(115, 191, 118)" stroke-width="1" d="M96.5,174.5V191.5L104.5,191.5"></path><path id="kity_path_109" fill="none" stroke="rgb(115, 191, 118)" stroke-width="1" d="M68.5,122.5V217.5L76.5,217.5"></path><path id="kity_path_117" fill="none" stroke="rgb(115, 191, 118)" stroke-width="1" d="M229.5,92.5V113.5L237.5,113.5"></path><path id="kity_path_125" fill="none" stroke="rgb(115, 191, 118)" stroke-width="1" d="M229.5,92.5V139.5L237.5,139.5"></path></g><g id="minder_node1"><path id="kity_path_142" fill="rgba(0, 0, 0, .25)" stroke="none" d="M187.5,17.5h111a22,22,0,0,1,22,22v0a22,22,0,0,1,-22,22h-111a22,22,0,0,1,-22,-22v0a22,22,0,0,1,22,-22z" display="none"></path><path id="node_outline1" fill="rgb(115, 191, 118)" stroke="rgb(115, 191, 118)" d="M179.5,20.5h84a5,5,0,0,1,5,5v18a5,5,0,0,1,-5,5h-84a5,5,0,0,1,-5,-5v-18a5,5,0,0,1,5,-5z" stroke-width="3"></path><g id="node_text1" fill="white"><text id="kity_text_22" text-rendering="inherit" font-size="16" dy=".8em" y="26.5" x="186.5">视图View</text></g></g><g id="kity_g_14" display="none"><path id="kity_path_15" fill="rgba(0, 92, 153, 0.5)" stroke="none" d="M284.5,199.5h75v15h-75z"></path><path id="kity_path_16" fill="none" stroke="rgb(0, 76, 128)" d="M284.5,214.5L359.5,214.5" stroke-width="1"></path></g><g id="minder_node2" opacity="1"><path id="kity_path_140" fill="rgba(0, 0, 0, .25)" stroke="none" d="M39.5,71.5h138a10,10,0,0,1,10,10v6a10,10,0,0,1,-10,10h-138a10,10,0,0,1,-10,-10v-6a10,10,0,0,1,10,-10z" display="none"></path><g id="node_expander1" style="cursor: pointer;"><path id="kity_path_36" fill="white" stroke="gray" d="M102.5,59.5A6,6,0,1,1,90.5,59.5A6,6,0,1,1,102.5,59.5"></path><path id="kity_path_37" fill="none" stroke="gray" d="M92,59.5L101,59.5"></path></g><path id="node_outline2" fill="rgb(238, 246, 238)" stroke="rgb(115, 191, 118)" d="M23.5,66.5h146a3,3,0,0,1,3,3v20a3,3,0,0,1,-3,3h-146a3,3,0,0,1,-3,-3v-20a3,3,0,0,1,3,-3z" stroke-width="1"></path><g id="node_text2" fill="black"><text id="kity_text_33" text-rendering="inherit" font-size="14" dy=".8em" y="72.5" x="40.5">静态页面组Pages</text></g></g><g id="minder_node3" opacity="1"><path id="kity_path_141" fill="rgba(0, 0, 0, .25)" stroke="none" d="M228.5,71.5h208a10,10,0,0,1,10,10v6a10,10,0,0,1,-10,10h-208a10,10,0,0,1,-10,-10v-6a10,10,0,0,1,10,-10z" display="none"></path><g id="node_expander2" style="cursor: pointer;"><path id="kity_path_44" fill="white" stroke="gray" d="M322.5,59.5A6,6,0,1,1,310.5,59.5A6,6,0,1,1,322.5,59.5"></path><path id="kity_path_45" fill="none" stroke="gray" d="M312,59.5L321,59.5"></path></g><path id="node_outline3" fill="rgb(238, 246, 238)" stroke="rgb(115, 191, 118)" d="M212.5,66.5h208a3,3,0,0,1,3,3v20a3,3,0,0,1,-3,3h-208a3,3,0,0,1,-3,-3v-20a3,3,0,0,1,3,-3z" stroke-width="1"></path><g id="node_text3" fill="black"><text id="kity_text_41" text-rendering="inherit" font-size="14" dy=".8em" y="72.5" x="229.5">动态页面组TransitionPages</text></g><g id="node_progress1" display="none"><path id="kity_path_47" fill="#FFED83" stroke="none" d="M224,80A9,9,0,1,1,206,80A9,9,0,1,1,224,80"></path><path id="kity_path_48" fill="#43BC00" stroke="none" d="M215,80L224,80A9,9,0,0,0,223.31491579260157,76.5558491087142A9,9,0,0,0,221.36396103067892,73.63603896932108L215,80z"></path><path id="kity_path_49" fill="#8E8E8E" stroke="none" d="M215,73c4.418,0,8,3.582,8,8h1c0,-5.523,-3.477,-10,-9,-10S206,75.477,206,81h1C207,76.582,210.582,73,215,73z"></path><path id="kity_path_51" fill="#EEE" stroke="none" d="M220.812,77.896l-6.75,6.75l-4.5,-4.5L211.25,78.459l2.812,2.803l5.062,-5.053L220.812,77.896z" display="none"></path><path id="kity_path_50" fill="url(#kity_linearGradient_17)" stroke="none" d="M215,70C209.477,70,205,74.477,205,80c0,5.523,4.477,10,10,10s10,-4.477,10,-10C225,74.477,220.523,70,215,70zM215,88c-4.418,0,-8,-3.582,-8,-8s3.582,-8,8,-8s8,3.582,8,8S219.418,88,215,88z"></path></g></g><g id="minder_node5"><g id="node_expander4" style="cursor: pointer;"><path id="kity_path_66" fill="white" stroke="gray" d="M48.5,113.5A6,6,0,1,1,36.5,113.5A6,6,0,1,1,48.5,113.5"></path><path id="kity_path_67" fill="none" stroke="gray" d="M38,113.5L47,113.5"></path></g><path id="node_outline5" fill="none" stroke="none" d="M53.5,104.5h55a5,5,0,0,1,5,5v8a5,5,0,0,1,-5,5h-55a5,5,0,0,1,-5,-5v-8a5,5,0,0,1,5,-5z" stroke-width="3"></path><g id="node_text5" fill="black"><text id="kity_text_63" text-rendering="inherit" font-size="12" dy=".8em" y="107.5" x="53.5">页面Page</text></g></g><g id="minder_node8"><g id="node_expander7" style="cursor: pointer;" display="none"><path id="kity_path_90" fill="white" stroke="gray" d="M76.5,139.5A6,6,0,1,1,64.5,139.5A6,6,0,1,1,76.5,139.5"></path><path id="kity_path_91" fill="none" stroke="gray"></path></g><path id="node_outline8" fill="none" stroke="none" d="M81.5,130.5h68a5,5,0,0,1,5,5v8a5,5,0,0,1,-5,5h-68a5,5,0,0,1,-5,-5v-8a5,5,0,0,1,5,-5z" stroke-width="3"></path><g id="node_text8" fill="black"><text id="kity_text_87" text-rendering="inherit" font-size="12" dy=".8em" y="133.5" x="81.5">导航Navbar</text></g></g><g id="minder_node9"><g id="node_expander8" style="cursor: pointer;"><path id="kity_path_98" fill="white" stroke="gray" d="M76.5,165.5A6,6,0,1,1,64.5,165.5A6,6,0,1,1,76.5,165.5"></path><path id="kity_path_99" fill="none" stroke="gray" d="M66,165.5L75,165.5"></path></g><path id="node_outline9" fill="none" stroke="none" d="M81.5,156.5h41a5,5,0,0,1,5,5v8a5,5,0,0,1,-5,5h-41a5,5,0,0,1,-5,-5v-8a5,5,0,0,1,5,-5z" stroke-width="3"></path><g id="node_text9" fill="black"><text id="kity_text_95" text-rendering="inherit" font-size="12" dy=".8em" y="159.5" x="81.5">列表List</text></g></g><g id="minder_node10"><g id="node_expander9" style="cursor: pointer;" display="none"><path id="kity_path_106" fill="white" stroke="gray" d="M104.5,191.5A6,6,0,1,1,92.5,191.5A6,6,0,1,1,104.5,191.5"></path><path id="kity_path_107" fill="none" stroke="gray"></path></g><path id="node_outline10" fill="none" stroke="none" d="M109.5,182.5h79a5,5,0,0,1,5,5v8a5,5,0,0,1,-5,5h-79a5,5,0,0,1,-5,-5v-8a5,5,0,0,1,5,-5z" stroke-width="3"></path><g id="node_text10" fill="black"><text id="kity_text_103" text-rendering="inherit" font-size="12" dy=".8em" y="185.5" x="109.5">列表项ListItem</text></g></g><g id="minder_node11"><g id="node_expander10" style="cursor: pointer;" display="none"><path id="kity_path_114" fill="white" stroke="gray" d="M76.5,217.5A6,6,0,1,1,64.5,217.5A6,6,0,1,1,76.5,217.5"></path><path id="kity_path_115" fill="none" stroke="gray"></path></g><path id="node_outline11" fill="none" stroke="none" d="M81.5,208.5h65a5,5,0,0,1,5,5v8a5,5,0,0,1,-5,5h-65a5,5,0,0,1,-5,-5v-8a5,5,0,0,1,5,-5z" stroke-width="3"></path><g id="node_text11" fill="black"><text id="kity_text_111" text-rendering="inherit" font-size="12" dy=".8em" y="211.5" x="81.5">标签Tabbar</text></g></g><g id="minder_node12" opacity="1"><g id="node_expander11" style="cursor: pointer;" display="none"><path id="kity_path_122" fill="white" stroke="gray" d="M237.5,113.5A6,6,0,1,1,225.5,113.5A6,6,0,1,1,237.5,113.5"></path><path id="kity_path_123" fill="none" stroke="gray" d="M227,113.5L236,113.5"></path></g><path id="node_outline12" fill="none" stroke="none" d="M242.5,104.5h55a5,5,0,0,1,5,5v8a5,5,0,0,1,-5,5h-55a5,5,0,0,1,-5,-5v-8a5,5,0,0,1,5,-5z" stroke-width="3"></path><g id="node_text12" fill="black"><text id="kity_text_119" text-rendering="inherit" font-size="12" dy=".8em" y="107.5" x="242.5">页面Page</text></g><g id="kity_g_132" display="none"><g id="kity_g_133"><path id="kity_path_134" fill="rgb(255, 244, 179)" stroke="none" d="M302.5,102.5h43v20h-43z"></path><text id="kity_text_135" text-rendering="geometricPrecision" font-size="12" dy="4" x="310.5" fill="rgb(77, 65, 0)" y="112.5">1111</text></g></g></g><g id="kity_g_12" display="none"><path id="kity_path_13" fill="none" stroke="rgb(66, 94, 112)" d="M289.5,217.5h65a5,5,0,0,1,5,5v12a5,5,0,0,1,-5,5h-65a5,5,0,0,1,-5,-5v-12a5,5,0,0,1,5,-5z" stroke-width="5"></path></g><g id="minder_node13"><g id="node_expander12" style="cursor: pointer;" display="none"><path id="kity_path_130" fill="white" stroke="gray" d="M237.5,139.5A6,6,0,1,1,225.5,139.5A6,6,0,1,1,237.5,139.5"></path><path id="kity_path_131" fill="none" stroke="gray"></path></g><path id="node_outline13" fill="none" stroke="none" d="M242.5,130.5h55a5,5,0,0,1,5,5v8a5,5,0,0,1,-5,5h-55a5,5,0,0,1,-5,-5v-8a5,5,0,0,1,5,-5z" stroke-width="3"></path><g id="node_text13" fill="black"><text id="kity_text_127" text-rendering="inherit" font-size="12" dy=".8em" y="133.5" x="242.5">页面Page</text></g><g id="kity_g_136" display="none"><g id="kity_g_137"><path id="kity_path_138" fill="rgb(255, 244, 179)" stroke="none" d="M302.5,128.5h43v20h-43z"></path><text id="kity_text_139" text-rendering="geometricPrecision" font-size="12" dy="4" x="310.5" fill="rgb(77, 65, 0)" y="138.5">1111</text></g></g></g></g></g></svg>